<?xml version="1.0" encoding="UTF-8" standalone="no"?>
<svg
   xmlns:dc="http://purl.org/dc/elements/1.1/"
   xmlns:cc="http://creativecommons.org/ns#"
   xmlns:rdf="http://www.w3.org/1999/02/22-rdf-syntax-ns#"
   xmlns:svg="http://www.w3.org/2000/svg"
   xmlns="http://www.w3.org/2000/svg"
   xmlns:sodipodi="http://sodipodi.sourceforge.net/DTD/sodipodi-0.dtd"
   xmlns:inkscape="http://www.inkscape.org/namespaces/inkscape"
   width="1920"
   height="1080"
   viewBox="0 0 508 285.75"
   version="1.1"
   id="svg384"
   inkscape:version="1.0.1 (3bc2e813f5, 2020-09-07, custom)"
   sodipodi:docname="13-org-run-global-7.svg">
  <defs
     id="defs378" />
  <sodipodi:namedview
     id="base"
     pagecolor="#ffffff"
     bordercolor="#666666"
     borderopacity="1.0"
     inkscape:pageopacity="0.0"
     inkscape:pageshadow="2"
     inkscape:zoom="0.49497475"
     inkscape:cx="578.0672"
     inkscape:cy="350.93456"
     inkscape:document-units="mm"
     inkscape:current-layer="layer1"
     inkscape:document-rotation="0"
     showgrid="false"
     units="px"
     inkscape:window-width="1920"
     inkscape:window-height="1080"
     inkscape:window-x="1280"
     inkscape:window-y="0"
     inkscape:window-maximized="0">
    <inkscape:grid
       type="xygrid"
       id="grid1482" />
  </sodipodi:namedview>
  <metadata
     id="metadata381">
    <rdf:RDF>
      <cc:Work
         rdf:about="">
        <dc:format>image/svg+xml</dc:format>
        <dc:type
           rdf:resource="http://purl.org/dc/dcmitype/StillImage" />
        <dc:title />
      </cc:Work>
    </rdf:RDF>
  </metadata>
  <g
     inkscape:label="Layer 1"
     inkscape:groupmode="layer"
     id="layer1">
    <rect
       style="display:inline;fill:#c7c5dc;fill-opacity:1;stroke:#648bc8;stroke-width:0.163367;stroke-linejoin:round;stroke-miterlimit:4;stroke-dasharray:none;stroke-opacity:0.869645;paint-order:markers fill stroke"
       id="rect2175"
       width="183.38768"
       height="288.73212"
       x="-3.4714394"
       y="0.00038708418"
       ry="0" />
    <rect
       style="display:inline;fill:#d4d3e3;fill-opacity:1;stroke:#648bc8;stroke-width:0.220246;stroke-linejoin:round;stroke-miterlimit:4;stroke-dasharray:none;stroke-opacity:0.869645;paint-order:markers fill stroke"
       id="rect2175-3"
       width="331.5394"
       height="290.28036"
       x="179.83775"
       y="0.0013834699"
       ry="0" />
    <text
       xml:space="preserve"
       style="font-style:normal;font-weight:normal;font-size:10.5833px;line-height:1.25;font-family:sans-serif;fill:#000000;fill-opacity:1;stroke:none;stroke-width:0.264583"
       x="23"
       y="26.867435"
       id="text388"><tspan
         sodipodi:role="line"
         id="tspan386"
         x="23"
         y="26.867435"
         style="font-size:14.1111px;stroke-width:0.264583">框架层设计</tspan><tspan
         sodipodi:role="line"
         x="23"
         y="42.477814"
         style="stroke-width:0.264583"
         id="tspan8163">      示意图</tspan><tspan
         sodipodi:role="line"
         x="23"
         y="55.706944"
         style="stroke-width:0.264583"
         id="tspan394" /><tspan
         sodipodi:role="line"
         x="23"
         y="68.936058"
         style="stroke-width:0.264583"
         id="tspan392" /></text>
    <text
       xml:space="preserve"
       style="font-style:normal;font-weight:normal;font-size:10.5833px;line-height:1.25;font-family:sans-serif;fill:#000000;fill-opacity:1;stroke:none;stroke-width:0.264583"
       x="432.14569"
       y="17.985777"
       id="text530"><tspan
         sodipodi:role="line"
         x="432.14569"
         y="17.985777"
         style="stroke-width:0.264583"
         id="tspan532" /></text>
    <text
       xml:space="preserve"
       style="font-style:normal;font-weight:normal;font-size:10.5833px;line-height:1.25;font-family:sans-serif;fill:#000000;fill-opacity:1;stroke:none;stroke-width:0.264583"
       x="448.04575"
       y="33.182102"
       id="text536"><tspan
         sodipodi:role="line"
         id="tspan534"
         x="448.04575"
         y="33.182102"
         style="stroke-width:0.264583" /></text>
    <rect
       style="fill:#fffffa;fill-opacity:1;stroke:#ffffff;stroke-width:0.18548;stroke-miterlimit:4;stroke-dasharray:none;stroke-opacity:1"
       id="rect1275"
       width="222.87907"
       height="138.99446"
       x="239.63638"
       y="63.660412"
       ry="8.7148294" />
    <path
       style="fill:none;stroke:#000000;stroke-width:0.174248px;stroke-linecap:butt;stroke-linejoin:miter;stroke-opacity:1"
       d="M 287.66045,63.554853 V 202.62951"
       id="path1281" />
    <rect
       style="fill:#daeafa;fill-opacity:1;stroke:#525d5e;stroke-width:0.174521;stroke-miterlimit:4;stroke-dasharray:none;stroke-opacity:1"
       id="rect1283-3"
       width="37.401581"
       height="14.04021"
       x="354.99973"
       y="106.27794"
       ry="3.0545642" />
    <rect
       style="fill:#daeafa;fill-opacity:1;stroke:#525d5e;stroke-width:0.174521;stroke-miterlimit:4;stroke-dasharray:none;stroke-opacity:1"
       id="rect1283-6"
       width="37.401581"
       height="14.04021"
       x="403.78928"
       y="106.27794"
       ry="3.0545642" />
    <rect
       style="fill:#daeafa;fill-opacity:1;stroke:#525d5e;stroke-width:0.174521;stroke-miterlimit:4;stroke-dasharray:none;stroke-opacity:1"
       id="rect1283-5"
       width="37.401581"
       height="14.04021"
       x="354.99973"
       y="130.77304"
       ry="3.0545642" />
    <rect
       style="fill:#daeafa;fill-opacity:1;stroke:#525d5e;stroke-width:0.174521;stroke-miterlimit:4;stroke-dasharray:none;stroke-opacity:1"
       id="rect1283-35"
       width="37.401581"
       height="14.04021"
       x="403.78928"
       y="130.77304"
       ry="3.0545642" />
    <rect
       style="fill:#daeafa;fill-opacity:1;stroke:#525d5e;stroke-width:0.174521;stroke-miterlimit:4;stroke-dasharray:none;stroke-opacity:1"
       id="rect1283-9"
       width="37.401581"
       height="14.04021"
       x="354.99973"
       y="155.0675"
       ry="3.0545642" />
    <rect
       style="fill:#daeafa;fill-opacity:1;stroke:#525d5e;stroke-width:0.174521;stroke-miterlimit:4;stroke-dasharray:none;stroke-opacity:1"
       id="rect1283-1"
       width="37.401581"
       height="14.04021"
       x="403.78928"
       y="155.0675"
       ry="3.0545642" />
    <rect
       style="fill:#daeafa;fill-opacity:1;stroke:#525d5e;stroke-width:0.174521;stroke-miterlimit:4;stroke-dasharray:none;stroke-opacity:1"
       id="rect1283-70"
       width="37.401581"
       height="14.04021"
       x="354.06668"
       y="176.07765"
       ry="3.0545642" />
    <rect
       style="fill:#daeafa;fill-opacity:1;stroke:#525d5e;stroke-width:0.174521;stroke-miterlimit:4;stroke-dasharray:none;stroke-opacity:1"
       id="rect1283-93"
       width="37.401581"
       height="14.04021"
       x="402.85623"
       y="175.97731"
       ry="3.0545642" />
    <rect
       style="fill:#daeafa;fill-opacity:1;stroke:#525d5e;stroke-width:0.12514;stroke-miterlimit:4;stroke-dasharray:none;stroke-opacity:1"
       id="rect1360"
       width="55.759495"
       height="10.799829"
       x="368.00656"
       y="81.638573"
       ry="3.0545573" />
    <rect
       style="fill:#4b607d;fill-opacity:0.521493;stroke:#ffffff;stroke-width:0.174521;stroke-miterlimit:4;stroke-dasharray:none;stroke-opacity:1"
       id="rect1443"
       width="2.3979516"
       height="7.2982249"
       x="282.66293"
       y="133.81406"
       ry="1.1989758" />
    <rect
       style="fill:#4b607d;fill-opacity:0.521493;stroke:#ffffff;stroke-width:0.174521;stroke-miterlimit:4;stroke-dasharray:none;stroke-opacity:1"
       id="rect1445-0"
       width="4.3608294"
       height="1.4982336"
       x="428.0293"
       y="70.5951"
       ry="0.74911678" />
    <rect
       style="fill:#4b607d;fill-opacity:0.521493;stroke:#ffffff;stroke-width:0.293694;stroke-miterlimit:4;stroke-dasharray:none;stroke-opacity:1"
       id="rect1468"
       width="222.94128"
       height="11.30992"
       x="239.15942"
       y="62.816177"
       ry="5.6549602" />
    <ellipse
       style="fill:#4b607d;fill-opacity:0.521493;stroke:#ffffff;stroke-width:0.174521;stroke-miterlimit:4;stroke-dasharray:none;stroke-opacity:1"
       id="path1424"
       cx="453.38275"
       cy="68.859688"
       rx="2.7575893"
       ry="2.7165477" />
    <ellipse
       style="fill:#4b607d;fill-opacity:0.521493;stroke:#ffffff;stroke-width:0.174521;stroke-miterlimit:4;stroke-dasharray:none;stroke-opacity:1"
       id="path1426"
       cx="446.98105"
       cy="68.845558"
       rx="2.1911404"
       ry="2.4865184" />
    <ellipse
       style="fill:#4b607d;fill-opacity:0.521493;stroke:#ffffff;stroke-width:0.174521;stroke-miterlimit:4;stroke-dasharray:none;stroke-opacity:1"
       id="path1426-6"
       cx="440.43839"
       cy="68.780334"
       rx="2.1911404"
       ry="2.4865184" />
    <rect
       style="fill:#4b607d;fill-opacity:0.521493;stroke:#ffffff;stroke-width:0.174521;stroke-miterlimit:4;stroke-dasharray:none;stroke-opacity:1"
       id="rect1445"
       width="4.3608294"
       height="1.4982336"
       x="428.11765"
       y="66.789635"
       ry="0.74911678" />
    <rect
       style="fill:#4b607d;fill-opacity:0.521493;stroke:#ffffff;stroke-width:0.174521;stroke-miterlimit:4;stroke-dasharray:none;stroke-opacity:1"
       id="rect1445-6"
       width="4.3608294"
       height="1.4982336"
       x="428.11765"
       y="69.78611"
       ry="0.74911678" />
    <rect
       style="fill:#4b607d;fill-opacity:0.521493;stroke:#ffffff;stroke-width:0.174521;stroke-miterlimit:4;stroke-dasharray:none;stroke-opacity:1"
       id="rect1523"
       width="20.909811"
       height="6.9699368"
       x="242.54767"
       y="81.983498"
       ry="0" />
    <rect
       style="fill:#4b607d;fill-opacity:0.521493;stroke:#ffffff;stroke-width:0.217257;stroke-miterlimit:4;stroke-dasharray:none;stroke-opacity:1"
       id="rect1525"
       width="41.819626"
       height="86.40966"
       x="242.54767"
       y="107.09283" />
    <rect
       style="fill:#4b607d;fill-opacity:0.521493;stroke:#ffffff;stroke-width:0.174521;stroke-miterlimit:4;stroke-dasharray:none;stroke-opacity:1"
       id="rect1527"
       width="34.849682"
       height="6.9699368"
       x="246.03265"
       y="95.92337"
       ry="3.4849684" />
    <rect
       style="fill:#4b607d;fill-opacity:0.752303;stroke-width:0.174248"
       id="rect150"
       width="50.532043"
       height="97.579124"
       x="289.59473"
       y="95.92337" />
    <rect
       style="fill:#4b607d;fill-opacity:0.752303;stroke-width:0.174248"
       id="rect158"
       width="41.819622"
       height="10.454906"
       x="294.8222"
       y="81.983498"
       ry="3.0545573" />
    <path
       style="fill:#cd534f;fill-opacity:0.815791;stroke-width:1.2474"
       id="path58"
       d="m 372.07657,187.38922 c -1.47941,3.79642 -4.60306,6.75022 -7.76043,9.18969 -4.64171,3.5863 -5.82188,4.13803 -10.1254,6.63116 -4.34997,2.20605 -8.6339,4.5475 -13.04996,6.61812 -20.04571,9.39903 -41.40329,17.06973 -62.98631,22.06128 -4.28399,0.99078 -8.62626,1.71018 -12.93938,2.56528 -12.77372,2.17451 -25.75983,3.18902 -38.69094,2.18743 -1.53948,-0.32926 -6.55063,-0.48626 -7.73884,-1.7997 0,0 -8.45274,5.15763 -8.45274,5.15763 v 0 c 1.77357,1.79772 6.57523,1.49658 8.84488,1.9078 13.75668,0.71742 27.49298,-1.21545 41.00616,-3.63873 4.4653,-0.95708 8.95891,-1.79041 13.39589,-2.87124 11.16241,-2.71912 20.42811,-5.54971 31.32845,-9.33525 10.61282,-3.68567 21.23198,-7.79513 31.47356,-12.42863 4.21037,-1.90485 8.30296,-4.05997 12.45443,-6.08997 5.37045,-3.07618 10.82202,-6.01487 16.11136,-9.22852 5.89746,-3.58312 13.12121,-8.55883 16.0527,-15.15299 0,0 -8.92343,4.22664 -8.92343,4.22664 z" />
    <path
       style="fill:#cd534f;fill-opacity:0.815791;stroke-width:1.0476"
       id="path68"
       d="m 244.83634,223.60813 c -3.25048,1.74256 -6.73319,2.99574 -10.1509,4.36356 -1.71892,0.6946 -3.4304,1.40928 -5.10995,2.19491 -0.45187,0.20844 -0.90745,0.40954 -1.34453,0.64718 -1.74646,0.94245 -9.09535,2.37321 -7.28295,5.31185 0.36029,0.58418 0.86854,0.95056 1.37738,1.40445 2.90499,2.39999 5.77135,4.84573 8.72113,7.19083 2.06028,1.60556 4.17013,3.14552 6.24822,4.7276 0.66252,0.50408 0.35226,0.27235 0.92917,0.69733 0,0 6.95605,-4.46388 6.95605,-4.46388 v 0 c -0.61997,-0.3551 -0.28747,-0.15487 -0.99244,-0.60895 -2.17092,-1.49738 -4.37421,-2.95034 -6.47469,-4.54671 -2.93405,-2.2866 -5.81877,-4.6477 -8.49066,-7.23985 -0.23505,-0.24784 -0.48254,-0.48446 -0.70516,-0.74352 -0.10298,-0.11978 -0.20185,-0.24709 -0.26896,-0.39006 -0.0516,-0.11003 0.34226,-0.0815 0.23337,-0.0163 -3.09325,1.85048 -9.41121,5.37493 -6.75069,3.89026 0.46227,-0.22594 0.904,-0.48607 1.36927,-0.71 1.79449,-0.8319 3.55226,-1.74616 5.39561,-2.4719 3.30234,-1.364 6.66132,-2.59034 9.91916,-4.05924 0,0 6.42157,-5.17753 6.42157,-5.17753 z" />
    <rect
       style="fill:#4b607d;fill-opacity:0.521569;stroke-width:0.351572"
       id="rect150-3"
       width="99.78418"
       height="201.16483"
       x="112.13438"
       y="61.147823" />
    <rect
       style="fill:#4b607d;fill-opacity:0.521569;stroke-width:0.372186"
       id="rect158-6"
       width="83.359123"
       height="23.929192"
       x="117.47232"
       y="29.24222"
       ry="6.991271" />
    <text
       xml:space="preserve"
       style="font-size:7.39143px;line-height:1.25;font-family:sans-serif;stroke-width:0.277178"
       x="129.66206"
       y="44.512051"
       id="text92"><tspan
         sodipodi:role="line"
         id="tspan90"
         x="129.66206"
         y="44.512051"
         style="font-size:7.39143px;stroke-width:0.277178">on file filter</tspan></text>
    <rect
       style="fill:#4b607d;fill-opacity:0.521569;stroke-width:2.02867"
       id="rect94"
       width="88.697044"
       height="83.153488"
       x="117.67795"
       y="79.375"
       ry="15.595229" />
    <rect
       style="fill:#4b607d;fill-opacity:0.521569;stroke-width:1.0476"
       id="rect100"
       width="88.697044"
       height="22.174261"
       x="117.67796"
       y="173.6156"
       ry="4.1587272" />
    <rect
       style="fill:#4b607d;fill-opacity:0.521569;stroke-width:1.0476"
       id="rect102"
       width="88.697044"
       height="49.89209"
       x="117.67796"
       y="201.33344"
       ry="4.1587272" />
    <text
       xml:space="preserve"
       style="font-size:8.51966px;line-height:1.25;font-family:sans-serif;stroke-width:0.141994"
       x="121.9881"
       y="73.178421"
       id="text106"><tspan
         sodipodi:role="line"
         id="tspan104"
         x="121.9881"
         y="73.178421"
         style="stroke-width:0.141994">状态+ state+任务名</tspan></text>
    <text
       xml:space="preserve"
       style="font-size:5.29167px;line-height:0;font-family:sans-serif;stroke-width:0.264583"
       x="31.75"
       y="74.083336"
       id="text1425"><tspan
         sodipodi:role="line"
         id="tspan1423"
         x="31.75"
         y="74.083336"
         style="stroke-width:0.264583" /></text>
    <path
       style="fill:#cd534f;fill-opacity:0.813093;stroke-width:1.0476"
       id="path56"
       d="m 325.67225,80.611899 c -2.27551,-4.587561 -5.17353,-8.776953 -9.03318,-12.193762 -1.50564,-1.332874 -3.16291,-2.483917 -4.74438,-3.725875 -1.98967,-1.213339 -3.92484,-2.521005 -5.96906,-3.640024 -4.73437,-2.591606 -9.3915,-4.55331 -14.42009,-6.510166 -7.34101,-2.85673 -14.68285,-5.067504 -22.25049,-7.206331 -12.56953,-3.462303 -25.54225,-4.765318 -38.50097,-5.677917 -6.69269,-0.42276 -13.39838,-0.551403 -20.1007,-0.723787 0,0 -5.88718,4.269896 -5.88718,4.269896 v 0 c 6.8315,-0.05813 13.66639,-0.01962 20.48846,0.394039 13.03506,0.812659 26.09024,2.01755 38.76926,5.32705 12.5041,3.375713 25.14137,7.12385 36.43029,13.650554 1.9642,1.135588 3.80333,2.474863 5.70497,3.712293 1.49108,1.260639 3.06947,2.424713 4.47322,3.78192 3.61121,3.49152 6.27658,7.808768 7.8315,12.569295 0,0 7.20835,-4.027185 7.20835,-4.027185 z" />
    <path
       style="fill:#cd534f;fill-opacity:0.81176472;stroke-width:1.0476"
       id="path66"
       d="m 219.19272,36.430908 c -4.4542,1.921513 -8.29597,4.755974 -12.20213,7.525057 -0.50992,0.573865 -2.12776,1.103802 -2.44961,1.842221 -0.50254,1.152959 1.07004,2.06424 1.741,2.570275 1.49433,0.923549 3.15693,1.490964 4.79757,2.085713 0,0 6.56977,-4.44543 6.56977,-4.44543 v 0 c -1.56948,-0.521439 -3.15854,-1.019464 -4.55294,-1.940646 -0.003,-0.0025 -1.09892,-0.719805 -1.1494,-1.07999 -0.048,-0.342512 2.25673,-1.742758 2.51063,-1.978218 1.06996,-0.757501 2.13329,-1.527745 3.23215,-2.243384 0.28318,-0.184438 1.15367,-0.704107 0.85941,-0.537878 -9.29235,5.249477 -8.27605,4.690463 -5.85048,3.367117 0,0 6.49403,-5.164837 6.49403,-5.164837 z" />
    <text
       xml:space="preserve"
       style="font-size:7.39143px;line-height:0;font-family:sans-serif;stroke-width:0.277178"
       x="258.3924"
       y="52.101608"
       id="text8003"><tspan
         sodipodi:role="line"
         x="258.3924"
         y="52.101608"
         style="font-size:7.39143px;stroke-width:0.277178"
         id="tspan8005">press action</tspan></text>
    <text
       xml:space="preserve"
       style="font-size:7.39143px;line-height:0;font-family:sans-serif;stroke-width:0.277178"
       x="280.48254"
       y="226.74478"
       id="text8011"><tspan
         sodipodi:role="line"
         id="tspan8009"
         x="280.48254"
         y="226.74478"
         style="font-size:7.39143px;stroke-width:0.277178">press action</tspan></text>
  </g>
</svg>
